<?xml version="1.0" encoding="utf-8"?>
<!-- Generator: Adobe Illustrator 26.0.2, SVG Export Plug-In . SVG Version: 6.00 Build 0)  -->
<svg version="1.1" id="Ebene_1" xmlns="http://www.w3.org/2000/svg" xmlns:xlink="http://www.w3.org/1999/xlink" x="0px" y="0px"
	 viewBox="0 0 24 21.2" style="enable-background:new 0 0 24 21.2;" xml:space="preserve">
<style type="text/css">
	.st0{fill-rule:evenodd;clip-rule:evenodd;}
	.st1{stroke:#FFFFFF;stroke-width:0.25;stroke-miterlimit:10;}
</style>
<path class="st0" d="M23,0v20h-8v-2h6V2H3v16h6v2H1V0H23z"/>
<g>
	<path class="st1" d="M7.7,2.9h1.7v8.8c0,3.5-1.7,4.6-4,4.6c-0.6,0-1.4-0.1-1.8-0.3l0.3-1.4c0.4,0.1,0.9,0.3,1.4,0.3
		c1.5,0,2.4-0.7,2.4-3.3V2.9z"/>
	<path class="st1" d="M12,13.9c0.8,0.5,1.9,0.9,3,0.9c1.7,0,2.7-0.9,2.7-2.2c0-1.2-0.7-1.9-2.5-2.6c-2.1-0.8-3.5-1.9-3.5-3.7
		c0-2,1.7-3.6,4.2-3.6c1.3,0,2.3,0.3,2.9,0.6l-0.5,1.4c-0.4-0.2-1.3-0.6-2.5-0.6c-1.8,0-2.5,1.1-2.5,2c0,1.2,0.8,1.8,2.6,2.5
		c2.2,0.9,3.3,1.9,3.3,3.9c0,2-1.5,3.8-4.6,3.8c-1.3,0-2.6-0.4-3.3-0.8L12,13.9z"/>
</g>
</svg>
