<?xml version="1.0" encoding="utf-8"?>
<!-- Generator: Adobe Illustrator 26.0.2, SVG Export Plug-In . SVG Version: 6.00 Build 0)  -->
<svg version="1.1" id="Ebene_1" xmlns="http://www.w3.org/2000/svg" xmlns:xlink="http://www.w3.org/1999/xlink" x="0px" y="0px"
	 viewBox="0 0 24 24" style="enable-background:new 0 0 24 24;" xml:space="preserve">
<style type="text/css">
	.st0{fill-rule:evenodd;clip-rule:evenodd;}
</style>
<path class="st0" d="M23,0v20h-8v-2h6V2H3v16h6v2H1V0H23z"/>
<rect x="4.3" y="3.3" width="6" height="6"/>
<g>
	<rect x="11.8" y="3.7" width="7.2" height="0.2"/>
</g>
<g>
	<rect x="11.8" y="4.5" width="7.2" height="0.2"/>
</g>
<g>
	<rect x="11.8" y="5.4" width="7.2" height="0.2"/>
</g>
<g>
	<rect x="11.8" y="6.3" width="7.2" height="0.2"/>
</g>
<g>
	<rect x="11.8" y="7.2" width="7.2" height="0.2"/>
</g>
<g>
	<rect x="11.8" y="7.9" width="7.2" height="0.2"/>
</g>
<g>
	<rect x="11.8" y="8.8" width="7.2" height="0.2"/>
</g>
<rect x="13.1" y="10.5" width="6" height="6"/>
<g>
	<rect x="4.3" y="11" width="7.2" height="0.2"/>
</g>
<g>
	<rect x="4.3" y="11.8" width="7.2" height="0.2"/>
</g>
<g>
	<rect x="4.3" y="12.7" width="7.2" height="0.2"/>
</g>
<g>
	<rect x="4.3" y="13.6" width="7.2" height="0.2"/>
</g>
<g>
	<rect x="4.3" y="14.4" width="7.2" height="0.2"/>
</g>
<g>
	<rect x="4.3" y="15.2" width="7.2" height="0.2"/>
</g>
<g>
	<rect x="4.3" y="16" width="7.2" height="0.2"/>
</g>
</svg>
